<?xml version="1.0" encoding="utf-8"?>
<!-- Generator: Adobe Illustrator 23.0.4, SVG Export Plug-In . SVG Version: 6.00 Build 0)  -->
<svg version="1.1" id="Layer_1" xmlns="http://www.w3.org/2000/svg" xmlns:xlink="http://www.w3.org/1999/xlink" x="0px" y="0px"
	 viewBox="0 0 823 280.7" style="enable-background:new 0 0 823 280.7;" xml:space="preserve">
<style type="text/css">
	.st0{opacity:0.1;}
	.st1{fill:#303444;}
	.st2{fill:#5E0094;}
	.st3{fill:#BF2EAE;}
	.st4{fill:#FF0092;}
	.st5{fill:#EAEAEA;}
	.st6{fill:url(#SVGID_1_);}
	.st7{fill:url(#SVGID_2_);}
	.st8{fill:#FFFFFF;}
	.st9{opacity:0.3;}
	.st10{opacity:0.3;fill:#FFFFFF;}
	.st11{fill:url(#SVGID_3_);}
	.st12{fill:url(#SVGID_4_);}
</style>
<g>
	<path d="M303.2,71h33.1c10.7,0,18.1,2.8,22.8,7.5c4.1,4.1,6.2,9.4,6.2,16.3V95c0,10.8-5.7,17.9-14.4,21.6l16.7,24.4h-22.3
		l-14.1-21.2h-8.6V141h-19.4V71z M335.5,104.6c6.5,0,10.4-3.2,10.4-8.3v-0.2c0-5.6-4.1-8.4-10.5-8.4h-12.8v16.9H335.5z"/>
	<path d="M375.1,71h56.3v16.4h-37.1v10.7h33.6v15.3h-33.6v11.1h37.6V141h-56.8V71z"/>
	<path d="M466,70.5h18.7l29.8,70.5h-20.8l-5-12.6h-27.1l-5,12.6h-20.3L466,70.5z M483,113.3l-7.8-19.8l-7.9,19.8H483z"/>
	<path d="M515,106.2V106c0-20.4,15.6-36.4,36.8-36.4c14.3,0,23.5,6,29.7,14.5l-14.6,11.3c-4-4.9-8.6-8.2-15.3-8.2
		c-9.8,0-16.7,8.4-16.7,18.6v0.2c0,10.5,6.9,18.7,16.7,18.7c7.3,0,11.6-3.4,15.8-8.5l14.6,10.4c-6.6,9.1-15.5,15.8-30.9,15.8
		C531.1,142.4,515,127.1,515,106.2z"/>
	<path d="M605.5,88h-20.9V71h61.3v17h-21v53h-19.4V88z"/>
	<path d="M654.9,71h19.4v70h-19.4V71z"/>
	<path d="M681.6,71h21.6l15.9,44.3l16-44.3h21.2l-28.4,70.5h-18L681.6,71z"/>
	<path d="M763.1,71h56.3v16.4h-37.1v10.7h33.6v15.3h-33.6v11.1h37.6V141h-56.8V71z"/>
	<path d="M304.3,171.4h37.3v5.4h-31.5v18.5h28.1v5.3h-28.1v22.6h-5.9V171.4z"/>
	<path d="M349.6,197.6v-0.1c0-14.3,10.8-26.9,26.6-26.9c15.8,0,26.4,12.4,26.4,26.7v0.1c0,14.3-10.8,26.9-26.6,26.9
		C360.2,224.3,349.6,211.9,349.6,197.6z M396.5,197.6v-0.1c0-11.8-8.6-21.4-20.5-21.4s-20.3,9.5-20.3,21.3v0.1
		c0,11.8,8.6,21.4,20.5,21.4S396.5,209.3,396.5,197.6z"/>
	<path d="M414.2,201.6v-30.2h5.9v29.8c0,11.2,5.9,17.5,15.9,17.5c9.6,0,15.7-5.8,15.7-17.1v-30.2h5.9v29.8c0,15.1-8.7,23-21.7,23
		C422.9,224.2,414.2,216.3,414.2,201.6z"/>
	<path d="M471.3,171.4h5.5l32.7,41.6v-41.6h5.7v51.9h-4.7L477,180.8v42.6h-5.7V171.4z"/>
	<path d="M529.9,171.4h18c16.3,0,27.6,11.2,27.6,25.8v0.1c0,14.6-11.3,26-27.6,26h-18V171.4z M535.8,176.9V218h12.2
		c13.1,0,21.5-8.9,21.5-20.4v-0.1c0-11.5-8.4-20.6-21.5-20.6H535.8z"/>
	<path d="M603.7,171.1h5.5l23.7,52.3h-6.3l-6.1-13.7h-28.3l-6.2,13.7h-6L603.7,171.1z M618.2,204.4l-11.8-26.5l-11.9,26.5H618.2z"/>
	<path d="M650.3,176.9h-17.5v-5.4h40.9v5.4h-17.5v46.5h-5.9V176.9z"/>
	<path d="M684.8,171.4h5.9v51.9h-5.9V171.4z"/>
	<path d="M703.6,197.6v-0.1c0-14.3,10.8-26.9,26.6-26.9c15.8,0,26.4,12.4,26.4,26.7v0.1c0,14.3-10.8,26.9-26.6,26.9
		S703.6,211.9,703.6,197.6z M750.5,197.6v-0.1c0-11.8-8.6-21.4-20.5-21.4c-11.9,0-20.3,9.5-20.3,21.3v0.1c0,11.8,8.6,21.4,20.5,21.4
		C742,218.8,750.5,209.3,750.5,197.6z"/>
	<path d="M769,171.4h5.5l32.7,41.6v-41.6h5.7v51.9h-4.7l-33.5-42.6v42.6H769V171.4z"/>
</g>
<g>
	<path d="M130.4,250.8c-2.2-1.4-4.8-2.2-7.6-2.2c-3.3,0-6.4,1.2-8.8,3.1c-3.3,2.6-5.3,6.6-5.3,11.1c0,1.8,0.3,3.4,0.9,5
		c2,5.4,7.2,9.2,13.3,9.2c6.7,0,12.3-4.6,13.8-10.9c0.3-1.1,0.4-2.2,0.4-3.3C137,257.8,134.3,253.3,130.4,250.8z"/>
	<path d="M233,185.9c-1-0.2-2.1-0.3-3.1-0.3c-1.9,0-3.8,0.4-5.5,1.2c-4.1,1.7-7.3,5.3-8.3,9.9c-0.4,1.7-0.4,3.3-0.2,4.9
		c0.7,5.7,5,10.7,11,12c0.2,0.1,0.5,0.1,0.7,0.1c0.8,0.1,1.6,0.2,2.4,0.2c6.5,0,12.4-4.5,13.8-11.1c1-4.5-0.2-9-3-12.2
		C238.8,188.3,236.2,186.6,233,185.9z"/>
	<path d="M224.3,88.3c0.8,0.4,1.7,0.6,2.6,0.8c1,0.2,2.1,0.3,3.1,0.3c4.2,0,8.2-1.9,10.8-5.1c1.4-1.7,2.5-3.7,3-6
		c1.7-7.6-3.1-15.2-10.7-16.9c-1-0.2-2.1-0.3-3.1-0.3c-0.6,0-1.2,0.1-1.9,0.2c-5.7,0.8-10.6,5-12,10.9c-0.1,0.3-0.1,0.6-0.2,0.9
		C214.9,79.5,218.4,85.8,224.3,88.3z"/>
	<path class="st0" d="M169.7,145c0-2.5,0.1-5.1,0.1-7.7s0-5.1-0.1-7.7c3.6,2.6,7.1,5.1,10.4,7.7l0,0c4.5-3.4,8.7-6.8,12.5-10.2
		c-7.3-5.8-15.3-11.5-23.8-17.1c-0.6-10.1-1.6-19.9-2.9-29.1c-4.8,1.7-9.9,3.6-15.1,5.8c0.5,4.2,1,8.5,1.4,12.9
		c-2.2-1.3-4.4-2.6-6.6-3.9c-2.2-1.3-4.4-2.5-6.7-3.8c-5.7,2.6-11.5,5.4-17.3,8.5c5.3,2.8,10.7,5.7,16.2,8.9
		c5.4,3.1,10.7,6.3,15.8,9.6c0.3,6,0.4,12.2,0.4,18.4s-0.1,12.4-0.4,18.4C159.2,152.2,164.6,148.6,169.7,145L169.7,145z"/>
	<path class="st0" d="M135.9,243.2c4.8,3.2,8.3,8.1,9.8,13.8c5.6-7.6,10.3-18.3,14.1-32.2c1.3-4.9,2.5-10,3.6-15.5
		c-4.8-1.6-9.8-3.5-14.9-5.5C145.3,220.6,140.9,234.2,135.9,243.2z"/>
	<path class="st0" d="M166,193.7c1.3-9.2,2.3-19,2.9-29.1c-5.3,3.5-10.9,7-16.6,10.5c-0.4,4.4-0.9,8.7-1.4,12.9
		C156.1,190,161.1,192,166,193.7L166,193.7z"/>
	<path class="st0" d="M91.1,175c2.2,1.3,4.4,2.6,6.6,3.9c2.2,1.3,4.4,2.5,6.7,3.8h0c5.7-2.6,11.5-5.4,17.3-8.5
		c-5.3-2.8-10.7-5.7-16.2-8.9c-5.4-3.1-10.7-6.3-15.8-9.6C90.1,162.4,90.5,168.8,91.1,175L91.1,175z"/>
	<path class="st0" d="M204.9,137.3c-3.8,3.4-7.9,6.8-12.3,10.2c13,11.1,22.6,21.7,27.9,30.6c2.9-1.2,6.1-1.9,9.4-1.9h0
		c1.7,0,3.5,0.2,5.2,0.6c0.9,0.2,1.8,0.5,2.7,0.8c-3.7-8.9-10.8-18.7-21.3-29.3C213,144.6,209.1,141,204.9,137.3z"/>
	<path class="st0" d="M63.4,137.3C63.3,137.3,63.3,137.3,63.4,137.3C63.3,137.3,63.3,137.3,63.4,137.3L63.4,137.3z"/>
	<path class="st0" d="M79.5,206.3c-0.8-4.1-1.4-8.3-2.1-12.6c-16.4,5.8-30.7,8.9-41,8.9c-8.4,0-14.3-2-16.7-6.3
		c-5.5-9.6,7.2-28.2,31.1-48.8c7.3,5.8,15.3,11.5,23.8,17.1l0,0c-0.2-3-0.3-6.1-0.5-9.2c-0.1-3.4-0.2-6.9-0.3-10.4
		c-3.2-2.3-6.3-4.6-9.4-6.9c-0.4-0.3-0.7-0.5-1.1-0.8l-12.5-10.2c-0.6-0.5-1.1-1-1.6-1.4c-22.9-20-34.9-38-29.5-47.3
		c2.5-4.3,8.4-6.3,16.7-6.3c10.4,0,24.6,3.1,41,8.9c-1.3,9.2-2.3,19-2.9,29.1c5.3-3.5,10.9-7,16.6-10.5l0,0
		c0.4-4.4,0.9-8.7,1.4-12.9c3.9,1.6,7.8,3.4,11.9,5.2l0,0c5.8-3.2,11.6-6.3,17.3-9.1c-9.1-4.5-18.1-8.5-26.7-12
		c5.8-31,15.6-51.4,26.7-51.4c11.1,0,20.9,20.4,26.7,51.4c5.1-2,10.1-3.9,14.9-5.5c-1.1-5.4-2.3-10.6-3.6-15.5
		c-8.4-30.6-21.2-46.1-38-46.1c-16.8,0-29.6,15.5-38,46.1c-1.3,4.9-2.5,10-3.6,15.5c-17-5.8-32.1-8.9-43.7-8.9h0
		C18.1,56.4,9.8,64.1,6,70.5c-8.4,14.6-1.4,33.4,20.9,56c3.5,3.6,7.4,7.2,11.6,10.8c-4.2,3.6-8,7.3-11.6,10.8
		C4.7,170.7-2.4,189.5,6,204.1c3.7,6.5,12,14.2,30.4,14.2c11.6,0,26.7-3.2,43.7-8.9v0C79.9,208.3,79.7,207.3,79.5,206.3z"/>
	<path d="M210,212.4c-1.9-3-3.1-6.4-3.5-9.8c-10.3-0.1-24.4-3.2-40.5-8.9h0c-4.8-1.7-9.9-3.6-15.1-5.8l0,0
		c-3.9-1.6-7.8-3.4-11.9-5.2c2.2-1.2,4.4-2.5,6.7-3.8c2.2-1.3,4.4-2.6,6.6-3.9c5.7-3.4,11.2-6.9,16.6-10.5
		c8.5-5.6,16.4-11.3,23.8-17.1c4.3-3.4,8.4-6.8,12.3-10.2c4.2-3.6,8-7.3,11.6-10.8c10.2-10.4,17.2-19.9,21-28.6
		c-2.4,0.8-4.9,1.2-7.5,1.2c-1.7,0-3.5-0.2-5.2-0.6c-1.4-0.3-2.9-0.8-4.3-1.4c-0.1,0-0.1-0.1-0.2-0.1c-5.3,8.8-14.8,19.2-27.6,30.2
		l0,0c-3.9,3.3-8.1,6.7-12.5,10.2l0,0c-3.3,2.6-6.8,5.1-10.4,7.7l0,0c-5.1,3.6-10.4,7.2-16,10.8l0,0c-5.1,3.2-10.3,6.4-15.8,9.6
		c-5.4,3.1-10.8,6.1-16.2,8.9l0,0c-5.9,3.1-11.7,5.9-17.3,8.5h0c-4,1.9-8,3.6-11.9,5.2c-0.5-4.2-1-8.5-1.4-12.9v0
		c-0.6-6.2-1-12.6-1.3-19.3v0c-0.3-6-0.4-12.2-0.4-18.4s0.1-12.4,0.4-18.4c5.1-3.2,10.3-6.4,15.8-9.6c5.4-3.1,10.8-6.1,16.2-8.9
		c5.9-3.1,11.7-5.9,17.3-8.5c4-1.9,8-3.6,11.9-5.2c5.2-2.2,10.2-4.1,15.1-5.8c16.1-5.7,30.1-8.8,40.4-8.9c0-0.2,0-0.3,0.1-0.5
		c0.1-0.6,0.2-1,0.3-1.5c1.2-5.3,4.2-9.9,8.2-13.2c-2.4-0.3-5.1-0.5-7.9-0.6v0h0c0,0,0,0-0.1,0c0,0-0.1,0-0.1,0v0
		c-11.6,0-26.6,3.2-43.5,8.9l0,0c-4.8,1.6-9.8,3.5-14.9,5.5h0c-8.6,3.5-17.6,7.5-26.7,12h0c-5.7,2.8-11.5,5.9-17.3,9.1l0,0
		c-2.2,1.2-4.4,2.5-6.7,3.8c-2.2,1.3-4.4,2.6-6.6,3.9l0,0c-5.7,3.4-11.2,6.9-16.6,10.5l0,0c-8.4,5.6-16.4,11.4-23.8,17.1l12.5,10.2
		c0,0,0,0,0,0c3.3-2.5,6.8-5.1,10.4-7.6c0,2.5-0.1,5.1-0.1,7.7s0,5.1,0.1,7.7c0.1,3.5,0.2,6.9,0.3,10.4c0.1,3.1,0.3,6.2,0.5,9.2l0,0
		c0.6,10.1,1.6,19.9,2.9,29.1c0.6,4.3,1.3,8.5,2.1,12.6c0.2,1,0.4,2.1,0.6,3.1v0c1.1,5.4,2.3,10.6,3.6,15.5
		c4.2,15.2,9.5,26.7,15.8,34.4c0.9-6,4.1-11.3,8.7-14.9c-5.3-9-9.9-23.1-13.1-40.5c8.6-3.5,17.6-7.5,26.7-12
		c9.1,4.5,18.1,8.5,26.7,12c5.1,2,10.1,3.9,14.9,5.5c17,5.8,32.1,8.9,43.7,8.9c2.8,0,5.3-0.2,7.7-0.5
		C212.9,216.2,211.3,214.4,210,212.4z"/>
</g>
</svg>
