<?xml version="1.0" encoding="utf-8"?>
<!-- Generator: Adobe Illustrator 23.0.4, SVG Export Plug-In . SVG Version: 6.00 Build 0)  -->
<svg version="1.1" id="Layer_1" xmlns="http://www.w3.org/2000/svg" xmlns:xlink="http://www.w3.org/1999/xlink" x="0px" y="0px"
	 viewBox="0 0 523.4 481.3" style="enable-background:new 0 0 523.4 481.3;" xml:space="preserve">
<style type="text/css">
	.st0{opacity:0.1;}
	.st1{fill:#303444;}
	.st2{fill:#5E0094;}
	.st3{fill:#BF2EAE;}
	.st4{fill:#FF0092;}
	.st5{fill:#EAEAEA;}
	.st6{fill:url(#SVGID_1_);}
	.st7{fill:url(#SVGID_2_);}
	.st8{fill:#FFFFFF;}
	.st9{opacity:0.3;}
	.st10{opacity:0.3;fill:#FFFFFF;}
	.st11{fill:url(#SVGID_3_);}
	.st12{fill:url(#SVGID_4_);}
</style>
<g>
	<path d="M3.4,324.6h33.1c10.7,0,18.1,2.8,22.8,7.5c4.1,4.1,6.2,9.4,6.2,16.3v0.2c0,10.8-5.7,17.9-14.4,21.6l16.7,24.4H45.5
		l-14.1-21.2h-8.6v21.2H3.4V324.6z M35.7,358.2c6.5,0,10.4-3.2,10.4-8.3v-0.2c0-5.6-4.1-8.4-10.5-8.4H22.8v16.9H35.7z"/>
	<path d="M75.3,324.6h56.3V341H94.5v10.7H128V367H94.5v11.1H132v16.5H75.3V324.6z"/>
	<path d="M166.2,324.1h18.7l29.8,70.5h-20.8l-5-12.6h-27.1l-5,12.6h-20.3L166.2,324.1z M183.2,366.9l-7.8-19.8l-7.9,19.8H183.2z"/>
	<path d="M215.2,359.8v-0.2c0-20.4,15.6-36.4,36.8-36.4c14.3,0,23.5,6,29.7,14.5L267.1,349c-4-4.9-8.6-8.2-15.3-8.2
		c-9.8,0-16.7,8.4-16.7,18.6v0.2c0,10.5,6.9,18.7,16.7,18.7c7.3,0,11.6-3.4,15.8-8.5l14.6,10.4c-6.6,9.1-15.5,15.8-30.9,15.8
		C231.3,396,215.2,380.7,215.2,359.8z"/>
	<path d="M305.7,341.6h-20.9v-17h61.3v17h-21v53h-19.4V341.6z"/>
	<path d="M355.1,324.6h19.4v70h-19.4V324.6z"/>
	<path d="M381.8,324.6h21.6l15.9,44.3l16-44.3h21.2l-28.4,70.5h-18L381.8,324.6z"/>
	<path d="M463.3,324.6h56.3V341h-37.1v10.7H516V367h-33.6v11.1H520v16.5h-56.8V324.6z"/>
	<path d="M4.5,425.1h37.3v5.4H10.4v18.5h28.1v5.3H10.4V477H4.5V425.1z"/>
	<path d="M49.8,451.2v-0.1c0-14.3,10.8-26.9,26.6-26.9c15.8,0,26.4,12.4,26.4,26.7v0.1c0,14.3-10.8,26.9-26.6,26.9
		C60.4,477.9,49.8,465.5,49.8,451.2z M96.7,451.2v-0.1c0-11.8-8.6-21.4-20.5-21.4s-20.3,9.5-20.3,21.3v0.1
		c0,11.8,8.6,21.4,20.5,21.4S96.7,463,96.7,451.2z"/>
	<path d="M114.3,455.3v-30.2h5.9v29.8c0,11.2,5.9,17.5,15.9,17.5c9.6,0,15.7-5.8,15.7-17.1v-30.2h5.9v29.8c0,15.1-8.7,23-21.7,23
		C123.1,477.9,114.3,470,114.3,455.3z"/>
	<path d="M171.5,425.1h5.5l32.7,41.6v-41.6h5.7V477h-4.7l-33.5-42.6V477h-5.7V425.1z"/>
	<path d="M230.1,425.1h18c16.3,0,27.6,11.2,27.6,25.8v0.1c0,14.6-11.3,26-27.6,26h-18V425.1z M236,430.5v41.1h12.2
		c13.1,0,21.5-8.9,21.5-20.4v-0.1c0-11.5-8.4-20.6-21.5-20.6H236z"/>
	<path d="M303.9,424.7h5.5l23.7,52.3h-6.3l-6.1-13.7h-28.3l-6.2,13.7h-6L303.9,424.7z M318.4,458.1l-11.8-26.5l-11.9,26.5H318.4z"/>
	<path d="M350.5,430.5h-17.5v-5.4h40.9v5.4h-17.5V477h-5.9V430.5z"/>
	<path d="M385,425.1h5.9V477H385V425.1z"/>
	<path d="M403.8,451.2v-0.1c0-14.3,10.8-26.9,26.6-26.9c15.8,0,26.4,12.4,26.4,26.7v0.1c0,14.3-10.8,26.9-26.6,26.9
		S403.8,465.5,403.8,451.2z M450.7,451.2v-0.1c0-11.8-8.6-21.4-20.5-21.4c-11.9,0-20.3,9.5-20.3,21.3v0.1c0,11.8,8.6,21.4,20.5,21.4
		S450.7,463,450.7,451.2z"/>
	<path d="M469.2,425.1h5.5l32.7,41.6v-41.6h5.7V477h-4.7l-33.5-42.6V477h-5.7V425.1z"/>
</g>
<path d="M267.5,250.4c-2.2-1.4-4.8-2.2-7.6-2.2c-3.3,0-6.4,1.2-8.8,3.1c-3.3,2.6-5.3,6.6-5.3,11.1c0,1.8,0.3,3.4,0.9,5
	c2,5.4,7.2,9.2,13.3,9.2c6.7,0,12.3-4.6,13.8-10.9c0.3-1.1,0.4-2.2,0.4-3.3C274.1,257.4,271.5,252.9,267.5,250.4z"/>
<path d="M370.2,185.5c-1-0.2-2.1-0.3-3.1-0.3c-1.9,0-3.8,0.4-5.5,1.2c-4.1,1.7-7.3,5.3-8.3,9.9c-0.4,1.7-0.4,3.3-0.2,4.9
	c0.7,5.7,5,10.7,11,12c0.2,0.1,0.5,0.1,0.7,0.1c0.8,0.1,1.6,0.2,2.4,0.2c6.5,0,12.4-4.5,13.8-11.1c1-4.5-0.2-9-3-12.2
	C376,187.9,373.3,186.2,370.2,185.5z"/>
<path d="M361.4,87.9c0.8,0.4,1.7,0.6,2.6,0.8c1,0.2,2.1,0.3,3.1,0.3c4.2,0,8.2-1.9,10.8-5.1c1.4-1.7,2.5-3.7,3-6
	c1.7-7.6-3.1-15.2-10.7-16.9c-1-0.2-2.1-0.3-3.1-0.3c-0.6,0-1.2,0.1-1.9,0.2c-5.7,0.8-10.6,5-12,10.9c-0.1,0.3-0.1,0.6-0.2,0.9
	C352.1,79.1,355.6,85.4,361.4,87.9z"/>
<path d="M347.1,211.9c-1.9-3-3.1-6.4-3.5-9.8c-10-0.1-23.6-3-39.1-8.4l0-0.3c1.3-9.2,2.3-19.1,2.9-29.2l0.1-1.1
	c7.5-5,14.5-10.1,21.1-15.2l0.2,0.2c12.9,11,22.4,21.5,27.6,30.2l0.6,1.1l1.2-0.5c2.8-1.2,5.8-1.8,8.8-1.8c1.6,0,3.3,0.2,4.9,0.5
	c0.8,0.2,1.6,0.4,2.5,0.7l3,1.1l-1.2-3c-3.8-9.1-11-19.1-21.6-29.8c-3.4-3.5-7.3-7.1-11.5-10.8c3.7-3.3,7.3-6.6,10.5-9.9
	c10.2-10.4,17.2-19.9,21-28.6c-2.4,0.8-4.9,1.2-7.5,1.2c-1.7,0-3.5-0.2-5.2-0.6c-1.4-0.3-2.9-0.8-4.3-1.4c-0.1,0-0.1-0.1-0.2-0.1
	c-5.2,8.5-14.3,18.6-26.5,29.2l-0.2-0.2c-7.2-5.6-15-11.3-23.3-16.8c-0.6-9.9-1.6-19.5-2.9-28.5l0-0.3c15.5-5.4,29-8.3,39-8.4
	c0-0.2,0-0.3,0.1-0.5c0.1-0.6,0.2-1,0.3-1.5c1.2-5.3,4.2-9.9,8.2-13.2c-2.4-0.3-5.1-0.5-7.9-0.6v0h0c0,0,0,0-0.1,0c0,0-0.1,0-0.1,0
	v0c-11.3,0-25.8,3.1-42.1,8.5c-1.1-5.5-2.3-10.7-3.6-15.4c-8.6-31.3-21.8-47.1-39.4-47.1S228,17.8,219.5,49c-1.2,4.3-2.3,9-3.3,14
	c-16.8-5.6-31.5-8.5-42.6-8.5c-19,0-27.7,8.1-31.6,14.9c-8.8,15.2-1.7,34.6,21.1,57.7c3.1,3.2,6.6,6.5,10.4,9.8
	c-3.8,3.4-7.3,6.7-10.4,9.8c-22.8,23.1-29.9,42.5-21.1,57.7c3.9,6.8,12.6,14.9,31.6,14.9c11.4,0,26.6-3.1,44-9
	c1,4.9,2.1,9.6,3.3,14.1c4.2,15.2,9.5,26.7,15.8,34.4c0.9-6,4.1-11.3,8.7-14.9c-5.3-9-9.9-23.1-13.1-40.5c8.6-3.5,17.6-7.5,26.7-12
	c8.6,4.3,17.1,8.1,25.3,11.4l-0.1,0.3c-3.1,16.6-7.4,30.1-12.3,38.9l-0.6,1.2l1.1,0.7c4.6,3,7.8,7.7,9.2,13l0.8,3l1.8-2.5
	c5.7-7.8,10.5-18.8,14.3-32.6c1.3-4.7,2.5-9.9,3.6-15.4c16.4,5.5,31,8.5,42.3,8.5c2.8,0,5.3-0.2,7.7-0.5
	C350,215.8,348.4,214,347.1,211.9z M303.1,193.3c-4.8-1.7-9.9-3.6-15.1-5.8c0.5-4.2,1-8.5,1.4-12.9c5.7-3.4,11.2-6.9,16.6-10.5
	C305.4,174.3,304.4,184,303.1,193.3z M308.3,132.1c2.7,1.9,5.3,3.9,7.8,5.7c-2.5,1.9-5.1,3.8-7.8,5.7c0-2.5,0.1-4.6,0.1-6.6
	C308.3,135.4,308.3,133.8,308.3,132.1z M374.9,177c-0.9-0.3-1.7-0.6-2.7-0.8c-1.7-0.4-3.4-0.6-5.2-0.6h0c-3.3,0-6.5,0.7-9.4,1.9
	c-5.3-8.9-14.9-19.4-27.9-30.6c4.3-3.4,8.4-6.8,12.3-10.2c4.2,3.6,8,7.3,11.6,10.8C364.1,158.4,371.2,168.1,374.9,177z M306,109.7
	c8.5,5.6,16.4,11.3,23.8,17.1l0,0c-3.9,3.3-8.1,6.7-12.5,10.2c-3.3-2.6-6.8-5.1-10.4-7.7c0,2.5,0.1,5.1,0.1,7.7s0,5.1-0.1,7.7
	c-5.1,3.6-10.4,7.2-16,10.8c0.3-6,0.4-12.2,0.4-18.4s-0.1-12.4-0.4-18.4c-5.1-3.2-10.3-6.4-15.8-9.6c-5.4-3.1-10.8-6.1-16.2-8.9
	c5.9-3.1,11.7-5.9,17.3-8.5c2.2,1.2,4.4,2.5,6.7,3.8c2.2,1.3,4.4,2.6,6.6,3.9c-0.4-4.4-0.9-8.7-1.4-12.9c5.2-2.2,10.2-4.1,15.1-5.8
	C304.4,89.8,305.4,99.5,306,109.7z M188.8,125.6c-0.3-0.3-0.6-0.5-0.9-0.8c-0.2-0.2-0.4-0.4-0.7-0.6c-22.7-19.9-33.9-37.3-29.2-45.5
	c2.1-3.7,7.5-5.6,15.5-5.6c9.9,0,23.5,2.9,39.5,8.4c-1.2,8.9-2.2,18.3-2.8,28l-0.1,1.1c-7.4,5-14.5,10.1-21.1,15.2L188.8,125.6z
	 M210.9,129.2c0,2.5-0.1,5.1-0.1,7.7c0,2,0,3.9,0.1,5.9c-2.8-2-5.7-4.1-8.5-6.2c-0.2-0.1-0.3-0.2-0.5-0.4c-0.1-0.1-0.2-0.1-0.3-0.2
	C204.6,133.8,207.7,131.5,210.9,129.2z M211.8,166c0.6,8.9,1.5,17.6,2.6,25.8l-0.3,0.1c-16.4,5.8-30.5,8.8-40.6,8.8
	c-8,0-13.4-1.9-15.5-5.6c-4.8-8.4,6.6-26,29.9-46.2c7.1,5.5,14.8,11,22.9,16.4L211.8,166z M287.8,96.5c-1.5-0.9-2.9-1.7-4.2-2.4
	c-2-1.2-4.1-2.3-5.8-3.3c3-1.4,5.9-2.7,8.8-3.9C287.1,90,287.4,93.2,287.8,96.5z M260.5,81.6l-1-0.5c-8.6-4.3-17.2-8.2-25.7-11.6
	c5.8-30.3,15.4-49,25.1-49c9.8,0,19.5,19.2,25.3,50.2l0.1,0.3C276.5,74.1,268.6,77.7,260.5,81.6z M173.5,217.9
	c-18.3,0-26.6-7.7-30.4-14.2c-8.4-14.6-1.4-33.4,20.9-56c3.5-3.6,7.4-7.2,11.6-10.8c-4.2-3.6-8-7.3-11.6-10.8
	c-22.3-22.5-29.3-41.4-20.9-56c3.7-6.5,12-14.2,30.4-14.2h0c11.6,0,26.7,3.2,43.7,8.9c1.1-5.4,2.3-10.6,3.6-15.5
	c8.4-30.6,21.2-46.1,38-46.1s29.6,15.5,38,46.1c1.3,4.9,2.5,10,3.6,15.5c-1.2,0.4-2.4,0.8-3.7,1.3c-2.5,0.9-4.9,1.8-7.5,2.8
	c-1.3,0.5-2.5,1-3.8,1.5c-5.8-31-15.6-51.4-26.7-51.4c-11.1,0-20.9,20.4-26.7,51.4c8.6,3.5,17.6,7.5,26.7,12
	c-1.4,0.7-2.9,1.4-4.3,2.2c-4.3,2.2-8.7,4.5-13,7v0c-4-1.9-8-3.6-11.9-5.2c-0.5,4.2-1,8.5-1.4,12.9c-5.7,3.4-11.2,6.9-16.6,10.5
	c0.6-10.1,1.6-19.9,2.9-29.1c-16.4-5.8-30.7-8.9-41-8.9c-8.4,0-14.3,2-16.7,6.3c-5.4,9.4,6.6,27.4,29.5,47.3c0.5,0.5,1.1,1,1.6,1.4
	l0,0l12.5,10.2l0,0l0,0c0.4,0.3,0.7,0.5,1.1,0.8c3,2.3,6.1,4.6,9.4,6.9c0,1.7,0.1,3.5,0.1,5.2c0.1,1.7,0.1,3.4,0.2,5.2
	c0.1,3.1,0.3,6.2,0.5,9.2c-8.5-5.6-16.4-11.3-23.8-17.1c-23.9,20.5-36.7,39.2-31.1,48.8c2.5,4.3,8.3,6.3,16.7,6.3
	c10.4,0,24.6-3.1,41-8.9c0.6,4.3,1.3,8.5,2.1,12.6c0.2,1,0.4,2.1,0.6,3.1v0C200.3,214.7,185.2,217.9,173.5,217.9z M240,92.4
	c-1.7,0.9-3.4,1.9-5.1,2.9c-1.7,1-3.4,2-5.1,3c0.3-3.4,0.7-6.7,1.1-9.9C233.7,89.6,236.8,91,240,92.4z M226.9,155.3
	c5.1,3.2,10.3,6.4,15.8,9.6c5.4,3.1,10.8,6.1,16.2,8.9l0,0c-2.9,1.5-5.9,3-8.8,4.4c-1.4,0.7-2.9,1.4-4.3,2.1c-1.4,0.7-2.9,1.3-4.3,2
	l0,0c-2.2-1.2-4.4-2.5-6.7-3.8c-2.2-1.3-4.4-2.6-6.6-3.9v0c-0.3-3.1-0.5-6.3-0.8-9.5C227.3,161.9,227.1,158.7,226.9,155.3z
	 M229.7,187.5c-0.5-3.6-0.9-7.3-1.2-11.1c2.1,1.3,4,2.3,5.7,3.4c2,1.2,4.1,2.3,5.8,3.3C236.4,184.6,233,186.1,229.7,187.5z
	 M260.4,173l-0.9-0.5c-5.5-2.9-10.9-5.8-16.1-8.8c-5.3-3.1-10.6-6.3-15.7-9.5l-0.8-0.5c-0.2-5.5-0.3-11-0.3-16.7
	c0-6.3,0.1-12.4,0.4-18.4c5.1-3.2,10.3-6.4,15.8-9.6c4.9-2.8,9.8-5.5,14.6-8l0.9,0.5c5.5,2.9,10.9,5.8,16.1,8.8
	c5.1,2.9,10.1,6,15.1,9.1c0.2,5.8,0.4,11.8,0.4,17.6c0,6.1-0.1,12.3-0.4,18.4l0,1c-4.6,2.9-9.4,5.8-14.3,8.6
	C270.1,167.7,265.2,170.4,260.4,173z M282.9,178.5c1.7-1,3.4-2,5.1-3c-0.4,4-0.8,7.8-1.3,11.4c-3.4-1.4-6.9-3-10.5-4.6
	C278.4,181,280.7,179.8,282.9,178.5z M296.9,224.4c-3.8,13.8-8.5,24.5-14.1,32.2c-1.5-5.7-5-10.6-9.8-13.8c5-9,9.4-22.6,12.5-39.4
	c5.1,2,10.1,3.9,14.9,5.5C299.4,214.4,298.2,219.5,296.9,224.4z"/>
</svg>
